<svg width="81" height="82" viewBox="0 0 81 82" fill="none" xmlns="http://www.w3.org/2000/svg">
<path d="M35.0454 34.6973C38.0024 35.4713 40.9593 36.0241 43.9163 36.4665C48.9541 37.351 53.9919 38.125 58.8107 39.5625C61.7677 40.447 64.5056 41.4422 66.915 43.4324C67.6816 43.9853 68.3387 44.6487 68.7768 45.4227C69.5434 46.8602 70.4196 48.1869 71.2956 49.5139C71.8432 50.6196 72.1718 51.8358 72.1718 53.0521C72.1718 53.9367 71.9527 54.8212 71.6242 55.7059C70.967 57.8066 69.6528 59.4651 68.2292 61.1238C65.8198 63.9986 62.7533 66.3206 59.5773 68.4214C49.5016 74.6133 38.6594 78.5939 27.16 80.6947C24.8602 81.0264 22.5603 81.2476 20.3699 81.2476C17.3035 81.2476 14.3465 80.9159 11.3896 80.0313C8.21358 79.0361 5.25656 77.5988 2.95672 75.1663C0.875875 72.9548 -0.000244141 70.3011 -0.000244141 67.4264C-0.000244141 66.8734 0.109249 66.2101 0.109249 65.6572C0.656846 61.3449 2.84715 57.696 5.3661 54.2684C9.19919 49.1821 13.9084 44.9804 18.8367 41.221C21.7937 39.0096 24.7507 37.13 27.7076 35.2503C28.0362 35.0291 28.3648 34.808 28.5838 34.6974C28.8028 34.5868 28.9123 34.3657 28.9123 34.2551C28.9123 34.1445 28.8028 34.0339 28.6933 33.9234C28.2552 33.4811 27.9267 33.1493 27.5981 32.8176C26.2838 31.6014 25.7363 30.1639 25.7363 28.616C25.7363 27.8419 25.9553 27.068 26.2839 26.1834C27.0505 23.8615 28.4743 21.9817 30.117 20.1021C32.7454 17.1167 35.7024 14.463 38.9879 12.141C43.6972 8.49217 48.8446 5.50675 54.4299 3.29538C57.4964 2.07912 60.7819 1.19457 64.0675 0.862867C64.5055 0.752298 65.0531 0.7523 65.6007 0.7523C66.5864 0.7523 67.6816 0.862868 68.7768 1.19457C70.2004 1.63685 71.4052 2.41083 72.0622 3.95879C72.2814 4.40113 72.5004 4.84334 72.7194 5.17511C73.048 5.72789 73.1574 6.17029 73.1574 6.61244C73.1574 7.38648 72.8289 8.04989 72.2814 8.60274C71.5146 9.59792 70.529 10.4825 69.4338 11.1458C65.0531 13.7995 60.3439 15.6793 55.3061 16.5638C54.2109 16.785 53.0062 16.785 51.8015 16.8955H51.0348C50.7064 16.785 50.2682 16.6744 50.2682 16.1215C50.3778 15.7898 50.7064 15.6793 51.0348 15.5686C52.5682 15.4581 54.1014 15.3476 55.5251 15.1264C59.3583 14.2418 63.0819 12.8043 66.4769 10.8141C67.9006 10.0401 69.1053 8.93438 70.091 7.71813C70.529 7.27585 70.9671 6.72295 71.0766 6.0596C71.0766 5.94903 70.967 5.72783 70.967 5.61732C70.6386 4.95385 69.7624 5.06442 69.1053 4.95385H68.5577C66.6959 4.95385 64.8341 5.39612 63.0819 5.94903C58.4822 7.27585 54.211 9.37672 50.1588 11.9198C44.7925 15.237 39.9736 19.2175 35.5929 23.7509C34.0596 25.5201 32.4169 27.2892 31.5408 29.5006C31.1026 30.2746 30.8836 31.0485 30.7741 31.8226L30.8836 32.1543C30.8836 32.7072 30.8836 33.0388 31.2122 33.0388C31.3217 33.0388 31.5407 32.9283 31.8693 32.8176C34.8263 31.2697 37.5641 29.6111 40.5211 28.1737C46.8732 25.1882 53.1157 22.2029 59.7963 19.9914C65.0531 18.3329 70.31 17.006 75.6763 16.1215C76.4429 16.0109 77.3191 15.9004 78.1953 15.9004C78.4143 15.9004 78.6333 15.7898 78.8523 15.7898C79.0713 15.7898 79.3999 15.9004 79.6189 16.0109C80.0571 16.1215 80.4951 16.2321 80.4951 16.6744C80.3856 17.0061 80.2761 17.0061 80.0571 17.0061H79.5095C77.5381 17.1166 75.5668 17.4484 73.5955 17.8906C64.9436 19.7704 56.7297 22.7557 48.6255 26.1834C43.5877 28.3948 38.7689 30.7168 34.0596 33.3705C33.7311 33.4811 33.4025 33.5917 33.1835 34.0339C33.7312 34.3656 34.4978 34.4762 35.0454 34.6973ZM1.97111 70.1904C2.84723 74.171 5.36618 76.7141 8.98024 78.1515C11.7182 79.1467 14.456 79.589 17.413 79.589H18.3988C21.1366 79.4784 23.8745 79.1467 26.503 78.4832C34.2788 76.6035 41.6164 73.618 48.7351 69.8588C53.2253 67.4263 57.7156 64.662 61.6582 61.2342C63.6295 59.465 65.6007 57.5855 67.0245 55.2634C67.7911 53.9366 68.3387 52.4992 68.6673 50.8406C68.6673 50.5089 68.6673 50.2878 68.6673 49.956C68.7769 48.961 68.3387 48.0764 67.2435 47.413C66.0389 46.639 64.8342 45.865 63.6295 45.3122C60.344 43.8747 56.9489 42.9902 53.4444 42.2162C48.7351 41.221 44.0257 40.3364 39.3166 39.4519C36.9072 38.8991 34.2788 38.4567 32.1979 36.7982C31.4312 36.2454 30.8837 36.0242 30.2266 36.0242C29.4599 36.0242 28.6933 36.3559 27.8173 36.9087C21.5748 40.8893 15.7703 45.4227 10.623 50.8406C8.32311 53.1627 6.24231 55.7058 4.59952 58.5807C3.1758 61.2342 1.97111 64.1091 1.86162 67.2052V69.4165C1.86158 69.6376 1.97111 69.9694 1.97111 70.1904Z" fill="black"/>
</svg>
